<?xml version="1.0" encoding="utf-8"?>
<!-- Generator: Adobe Illustrator 15.0.0, SVG Export Plug-In . SVG Version: 6.00 Build 0)  -->
<!DOCTYPE svg PUBLIC "-//W3C//DTD SVG 1.1//EN" "http://www.w3.org/Graphics/SVG/1.1/DTD/svg11.dtd">
<svg version="1.1" id="Layer_1" xmlns="http://www.w3.org/2000/svg" xmlns:xlink="http://www.w3.org/1999/xlink" x="0px" y="0px"
	 width="176px" height="208px" viewBox="0 0 176 208" enable-background="new 0 0 176 208" xml:space="preserve">
<rect x="9.167" y="17.5" fill="#CCCCCC" width="159.333" height="158.667"/>
<path fill="#DD3626" stroke="#C63838" stroke-width="0.9119" stroke-linecap="round" stroke-linejoin="round" d="M120.5,104"/>
<g id="SignTorch">
	<path id="signtorch-horse087_x003d_.cmx" fill="#33CC00" d="M104.556,126.935c-0.26-0.325-0.544-0.661-0.827-1.013
		c-0.661-0.799-1.482-2.582-1.959-2.135c-0.236,0.213-0.024,2.599,0.024,2.892c0.04,0.585,0.711,4.946,0.865,5.527
		c0.363,1.425,2.265,4.645,3.083,6.046c1.753,3.009,3.282,3.861,3.505,7.476c0.168,2.82,3.371,5.032,4.378,7.654
		c0.306,0.775,0.955,3.539,0.838,4.421c-0.206,1.763-4.178,1.744-6.485,0.575c-2.497-1.294-1.983-2.582-2.108-4.66
		c-0.161-2.856-0.681-2.536-2.142-3.991c-0.914-0.9-1.012-2.877-1.374-4.146c-0.941-3.345-4.51-9.115-6.583-12.113
		c-2.603-3.761-2.634-4.149-2.73-7.996c-0.067-3.461-0.322-4.863-0.847-8.262c-0.52-3.297-0.067-4.63-4.1-5.993
		c-5.504-1.854-8.572-2.62-12.746-6.406c-2.244-2.028-2.618-1.372-4.564,0.04c-3.544,2.568-3.518,2.687-4.665,6.455
		c-0.604,2.005-1.502,3.888-2.232,5.836c-1.17,3.189-0.205,4.633-1.885,7.504c-1.104,1.893-0.848,3.701-0.478,5.803
		c0.295,1.722,0.453,4.02,1.264,5.59c0.878,1.715,0.975,3.539,1.442,5.31c0.322,1.243,1.744,2.926,1.161,4.223
		c-0.607,1.313-4.576,1.271-5.795,1.164c-1.682-0.151-3.732-0.412-3.686-2.292c0.088-2.586,2.616-2.365,0.969-4.933
		c-1.533-2.418-1.105-3.714-0.757-6.376c0.464-3.435-0.064-7.1-1.13-10.501c-0.382-1.157-0.947-2.283-1.243-3.409
		c-0.457-1.688-1.109,0.196-1.646,1.053c-1.477,2.413-2.868,5.295-5.617,6.812c-0.639,0.344-1.108-0.095-1.132-0.679
		c-0.005-0.384,1.453-5.146-0.358-4.044c-0.2,0.144-2.771,2.519-3.288,2.938c-0.899,0.727-1.011,0.863-2.182,1.025
		c-2.001,0.309-3.843,2.331-5.529,3.226c-2.918,1.57-0.288-2.916-0.068-3.323c0.669-1.128,1.425-2.222,2.157-3.322
		c0.201-0.279,2.25-3.062,0.966-2.896c-0.231,0.043-3.034,1.609-3.952,1.891c-3.703,1.139,0.868-3.143,1.314-3.548
		c0.425-0.421,2.518-2.19,0.464-2.125c-1.83,0.077-4.75-0.933-2.714-2.616c1.543-1.264,2.658-1.496,4.719-3.35
		c1.862-1.717,2.073-1.912,4.178-3.317c3.21-2.159,0.724-1.62,0.158-2.172c-0.563-0.568,0.775-1.229,1.163-1.415
		c4.083-1.848,4.205-3.062,6.868-6.191c0.717-0.834,2.026-1.169,1.969-2.392c-0.08-1.649-0.044-3.319,0.01-4.967
		c0.138-4.214,1.785-13.934,4.667-17.301c1.815-2.143,3.71-4.218,5.963-6.005c4.749-3.807,8.491-6.208,15.516-5.48
		c0.73,0.075,6.115,1.125,6.919,1.289c3.182,0.627,6.211,1.928,9.425,0.907c1.537-0.49,3.007-1.707,3.699-2.986
		c0.504-0.923-0.638-0.525-1.136-0.35c-1.426,0.492-1.983-0.098-0.689-1.322c1.813-1.684,3.273-3.439,4.695-5.373
		c0.572-0.78,0.82-1.375-0.466-1.189c-0.523,0.071-1.104,0.173-1.422,0.028c-1.296-0.606,1.165-1.975,1.542-2.245
		c3.49-2.366,2.508-3.151,5.921-6.146c1.272-1.114-2.623-0.621,0.565-2.782c3.213-2.178,5.996-4.171,10.334-4.345
		c1.378-0.054,2.426,0.706,2.837-0.04c0.367-0.636-0.624-3.661,2.991-5.967c0.798-0.51,3.093-2.119,3.955-0.869
		c0.605,0.866-0.024,3.465-0.282,4.425c-0.469,1.718,2.059,0.898,4.007,0.932c3.851,0.08,3.601,0.524,4.876,0.72
		c1.622,0.234,3.741-2.575,4.699-3.39c0.979-0.808,1.792-0.105,1.88,0.908c0.09,1.034-1.127,4.217-1.566,5.168
		c-0.863,1.926-2.004,2.345-1.743,3.271c0.26,0.926,1.081,1.863,1.741,4.683c0.265,1.079,1.095,5.675-0.037,6.463
		c-0.711,0.526-1.155-1.104-1.975-0.021c-1.518,1.962-1.138,1.54-1.562,4.421c-0.47,3.163-1.11,4.103-1.574,6.494
		c-0.679,3.478,1.461,3.598,0.934,6.848c-0.233,1.485-0.649,2.441-1.634,3.597c-1.534,1.746-1.803,3.475-4.818,3.506
		c-1.799,0.028-1.364,1.405-1.554,2.629c-0.433,2.8-0.386,4.811,1.016,7.494c1.623,3.123,3.153,6.288,3.522,9.676
		c0.301,2.975-0.398,6.777-1.489,9.575c-1.308,3.355-0.935,3.414-0.27,6.775c0.686,3.397,1.573,6.789,1.783,10.21
		c0.206,3.575,0.816,6.582,2.288,9.987c1.319,3.054,0.434,5.15-0.966,7.938c-1.751,3.445-1.55,3.59-2.723,6.833
		c-0.689,1.977-0.863,1.796-1.862,3.295c-0.97,1.452-3.366,1.579-3.542,2.26c-0.145,0.497,0.978,2.097,1.271,2.508
		c1.271,1.644,3.942,5.549,4.549,7.435c0.764,2.31-2.178,2.741-4.208,2.5c-2.849-0.307-5.941-0.94-6.241-3.915
		c-0.234-2.388,1.398-3.811-0.889-5.973c-2.488-2.335-1.46-4.467-1.905-7.232c-0.518-3.182-1.689-5.886-3.639-8.676
		c-2.196-3.188-1.304-4.015-4.307-7.253C108.179,131.387,106.489,129.259,104.556,126.935z M45.159,116.404
		c0.122-0.212,0.268-0.419,0.391-0.634c0.38-0.556,0.732-1.096,1.156-1.65c2.104-2.711,4.148-8.193,4.403-11.713
		c0.058-0.801-0.091-1.44-0.758-1.332c-0.918,0.126-0.911,1.67-1.166,2.589c-0.584,2.166-0.556,2.862-1.99,4.852
		c-2.023,2.77-5.095,4.754-5.379,5.135c-0.583,0.718,0.58,0.882,1.174,0.528c0.842-0.506,1.71-0.891,1.401,0.528
		c-0.682,3.089-5.844,6.677-4.348,7.448c0.623,0.33,1.743-1.097,2.014-1.404C43.378,119.343,44.237,117.858,45.159,116.404z
		 M112.516,125.884c-0.938-1.786-1.988-3.527-3.359-5.11c-1.755-1.985-0.585-1.879-0.765-3.894
		c-0.187-1.972-2.467-1.902-3.013-4.588c-0.132-0.731-0.286-2.506-1.583-2.535c-1.798,0.008-1.743,3.403,0.135,5.486
		c2.22,2.465-1.784,0.648,0.453,4.73c2.396,4.381,2.824,3.792,4.424,6.351c3.012,4.765,2.019,0.433,4.302,3.521
		c0.168,0.238,1.687,2.575,2.284,1.647c0.381-0.577-1.392-3.047-2.2-4.348c-0.102-0.19-0.211-0.361-0.283-0.485
		C112.796,126.388,112.656,126.135,112.516,125.884z M119.257,122.252c-0.082-0.223-0.139-0.428-0.219-0.632
		c-0.128-0.347-0.226-0.669-0.361-1.002c-0.883-2.698-2.557-2.766-4.902-4.42c-0.771-0.544-0.76,0.402-0.62,0.83
		c0.459,1.646,0.933,3.361,1.536,4.953c1.12,2.91,1.698,5.543,3.81,8.146c3.301,4.056,3.344,4.351,3.279,9.251
		c-0.035,2.519,0.574,4.963,0.879,7.459c0.198,1.628,0.917,1.063,1.979,0.576c2.083-0.986,1.56-2.936,2.08-4.859
		c0.217-0.811,0.669-2.862,0.735-3.564c0.186-2.36-1.582-4.577-2.787-6.634c-2.17-3.649-3.467-4.987-5.033-9.063
		C119.507,122.946,119.38,122.597,119.257,122.252z M122.172,106.104c-0.011,0.074-0.021,0.128-0.008,0.19
		c-0.041,0.842-0.024,1.732,0.605,2.038c0.662,0.334,1.792-0.703,2.692-0.853c1.128-0.193,1.923-0.256,2.551-1.238
		c1.277-2.017-1.046-7.288-2.505-7.286c-1.771-0.025-3.506,3.903-3.316,5.992C122.234,105.249,122.194,105.665,122.172,106.104z
		 M115.424,101.972c-0.101,0.082-0.205,0.161-0.283,0.265c-1.104,1.023-1.717,1.775-2.222,3.874
		c-0.101,0.524-0.567,2.644,0.65,2.603c1.13-0.037,1.569-2.45,3.734-2.922c2.37-0.515,1.262-2.21,1.832-4.28
		c0.078-0.353,1.078-3.01-0.23-2.848c-0.748,0.057-1.999,1.904-2.503,2.383C116.054,101.397,115.715,101.69,115.424,101.972z
		 M94.629,101.684c-0.013,0.383-0.027,0.765-0.018,1.133c-0.034,1.807,0.034,3.395,0.176,4.207c0.227,1.285,1.856,7.551,3.489,7.609
		c1.766,0.045-0.365-3.429,0.404-5.21c0.959-2.26-1.307-5.022-0.616-7.86c0.829-3.319,0.008-3.66,0.291-6.214
		c0.27-2.442,3.223-5.681,1.252-5.872c-2.05-0.262-4.11,4.328-4.411,5.552C94.911,96.143,94.692,98.978,94.629,101.684z
		 M86.058,79.571c0.039-0.108,0.104-0.233,0.171-0.378c0.499-1.041,1.289-2.38,1.792-0.993c0.392,1.101,1.101,0.866,1.27-0.072
		c0.393-2.382,1.683-4.898,3.724-6.468c0.515-0.419,3.742-4,1.903-4.171c-1.132-0.063-6.541,4.818-6.833,5.118
		c-1.806,1.779-4.066,4.76-3.756,7.389c0.128,1.06,0.951,1.11,1.499,0.04C85.89,79.929,85.958,79.767,86.058,79.571z M95.066,76.082
		c0.077-0.067,0.156-0.131,0.233-0.198c0.596-0.5,1.187-1.142,1.982-2.638c0.247-0.441,1.649-3.111-0.425-1.894
		c-1.71,1.044-4.91,4.861-5.284,6.246c-0.327,1.257,0.584,1.458,1.686,0.147C93.977,76.893,94.529,76.498,95.066,76.082z
		 M102.472,72.36c0.131-0.693,0.264-1.383,0.393-2.077c0.329-1.836,0.727-3.68,1.165-5.481c1.004-4.003,0.483-3.796,2.103-8.03
		c0.067-0.144,0.421-0.955,0.562-1.589c0.171-0.936-0.594-0.94-1.207-0.167c-0.691,0.835-1.383,2.248-1.671,2.648
		c-2.571,3.836-5.628,7.038-7.349,11.296c-0.404,1.018,0.251,1.139,1.142,0.16c1.033-1.15,1.938-2.337,2.806-3.59
		c0.753-1.076,1.116-0.519,0.938,0.473c-0.566,2.917-1.827,5.802-3.102,8.51c-0.565,1.185,0.786,0.721,1.144,0.871
		c0.997,0.389-2.912,5.749-3.137,6.022c-0.671,0.859-4.464,4.293-3.824,5.395c0.58,1.033,3.219-2.35,3.816-2.891
		c2.431-2.202,5.569-7.627,6.031-10.329C102.347,73.17,102.408,72.774,102.472,72.36z M105.539,68.813
		c-0.075,0.47-0.146,0.94-0.241,1.407c-0.323,2.09-0.693,4.167-1.182,6.287c-0.725,3.221-3.576,5.972-5.867,8.426
		c-0.078,0.066-2.452,2.488-1.4,2.48c1.238,0.001,4.066-4.605,4.209-3.217c0.034,0.235-0.771,1.632-0.047,1.591
		c0.456-0.024,1.333-1.334,2.215-2.833c3.629-6.292,4.506-12.492,4.567-19.665c0.006-1.48-0.144-1.985,0.08-3.416
		c0.061-0.53-0.07-1.859-0.704-0.089c-0.794,2.207-0.878,4.35-1.257,6.64C105.785,67.233,105.664,68.021,105.539,68.813z
		 M121.333,68.747c0.123,0.23,0.265,0.484,0.421,0.777c0.943,1.745,2.413,4.422,3.054,4.771c0.577,0.32,1.01-0.151,0.287-1.419
		c-1.162-2.048-0.178-2.185-1.986-4.835c-1.341-1.922-1.335-3.849-2.405-4.593c-1.34-0.94-1.702,2.124-3.856-4.24
		c-0.458-1.382-0.415-1.952-0.639-2.678c-0.345-1.248-0.907,0.07-0.948,0.622c-0.211,2.357,1.077,6.35,3.182,7.986
		c1.88,1.488,1.588,1.192,2.616,3.085C121.129,68.347,121.232,68.539,121.333,68.747z M129.66,55.81
		c0.024,0.139,0.047,0.278,0.069,0.416c0.174,1.048,0.328,2.073,0.363,2.733c0.191,3.96-1.943,1.816-1.873,5.813
		c0.014,0.64,0.207,2.402,0.06,2.938c-0.177,0.725-1.563,0.236-0.771,1.517c1.073,1.745-0.744,2.753,0.026,3.701
		c0.606,0.732,1.368-0.422,1.607-0.791c0.328-0.527,0.972-2.372,1.96-1.486c0.711,0.632,1.181,1.089,2.15-0.396
		c0.822-1.241-0.982-1.48-0.787-3.896c0.37-4.97,0.763-6.93,0.209-11.889c-0.29-2.607,1.227-4.257,0.834-5.782
		c-0.386-1.409-0.596-3.676-2.178-4.48c-0.475-0.247-0.821-0.514-1.076-0.745c-0.86-0.808-1.428-0.916-1.671,0.203
		c-0.09,0.446-0.239,0.829-0.933,0.664c-1.624-0.386-0.784,1.149-1.683,1.741c-0.45,0.276-1.45,0.643-0.802,1.245
		c0.86,0.828,3.461,0.113,3.781,2.685c0.127,1.061,0.16,2.145,0.279,3.222C129.348,53.932,129.49,54.877,129.66,55.81z
		 M134.856,50.841c-0.091,0.449-0.066,0.857,0.067,1.032c0.498,0.674,2.768-0.783,1.522-2.305c-0.148-0.195-0.364-0.383-0.637-0.367
		C135.331,49.24,134.975,50.09,134.856,50.841z M121.787,49.114c0.107,0.018,0.217,0.036,0.351,0.058
		c0.565,0.106,1.099,0.303,1.507,0.849c1.235,1.579,2.199-1.738-0.528-2.97c-1.009-0.447-4.555-0.151-3.496,1.267
		C120.124,48.992,120.95,49.004,121.787,49.114z M122.076,51.299c-0.021-0.005-0.067-0.011-0.086-0.034
		c-0.189-0.066-0.382-0.136-0.604-0.151c-1.134-0.06-0.604,1.273,1.141,1.333c1.046,0.048,1.387-0.554,0.058-0.955
		C122.411,51.449,122.239,51.381,122.076,51.299z M111.584,48.724c0.038-0.245,0.096-0.468,0.15-0.689
		c0.166-0.766,0.324-1.491,0.588-2.318c0.308-0.972-0.563-0.412-0.927,0.185c-0.756,1.25-1.487,3.64-1.584,4.108
		c-0.771,3.229-1.299,6.922,0.68,10.042c0.545,0.855,1.271,0.523,1.047-0.356c-0.772-3.106-0.765-7.207-0.111-10.244
		C111.489,49.189,111.527,48.944,111.584,48.724z M109.162,46.978c0.479-0.79,0.981-1.56,1.567-2.297
		c0.136-0.152,0.814-0.895,1.215-1.467c0.49-0.676,0.298-0.899-0.549-0.625c-0.806,0.26-1.915,0.897-2.318,1.18
		c-2.328,1.678-2.766,3.055-3.713,4.662c-0.312,0.547-0.665,1.108-1.187,1.701c-0.773,0.939,0.262,1.217-0.136,1.886
		c-0.736,1.271-3.646,3.821-2.375,4.001c0.66,0.104,2.6-1.693,2.979-2.097C106.628,51.863,107.737,49.337,109.162,46.978z
		 M114.952,40.216c0.166-0.053,0.331-0.104,0.516-0.132c1.314-0.393,2.542-0.76,2.868-1.114c0.488-0.558-0.546-0.836-1.033-0.893
		c-2.421-0.166-4.565,1.061-6.427,2.198c-1.565,0.97-0.835,1.622,1.036,0.854C112.586,40.847,113.78,40.533,114.952,40.216z
		 M124.656,41.628c-0.032,0.072-0.047,0.166-0.061,0.259c-0.18,0.725-0.261,1.386,0.335,1.44c1.194,0.126,1.683-3.167,2.167-3.823
		c0.407-0.61,1.404-0.785,0.861-1.771c-0.388-0.68-1.483-1.023-2.282-1.071c-2.463-0.19-5.042,2.682-6.301,4.107
		c-0.293,0.318-1.965,1.523-1.384,1.979c0.384,0.271,1.508-0.594,1.808-0.778c0.697-0.45,1.952-1.872,2.209-1.218
		c0.151,0.333-0.774,1.229-0.038,1.401c0.671,0.161,2.505-2.672,2.938-1.988C125.032,40.377,124.824,40.999,124.656,41.628z
		 M129.198,37.713c0.067,0.125,0.142,0.233,0.168,0.354c0.165,0.679,0.155,1.045,0.217,1.342c0.078,0.496,0.306,0.782,1.737,1.967
		c2.771,2.26,1.878,4.103,2.668,4.65c0.731,0.481,1.019-0.901,1.002-1.384c0.005-0.172-0.217-1.65,0.464-1.257
		c0.893,0.507,1.733,3.004,1.916,3.861c0.242,1.174,1.152,1.241,1.109,0.077c-0.196-3.94-2.754-6.244-3.102-7.339
		c-0.211-0.649,2.2-0.137,0.119-2.062c-1.119-1.022-3.016-1.548-4.575-1.636C127.656,36.069,128.72,36.868,129.198,37.713z
		 M62.948,85.778c0.163,0.833,0.281,1.662,0.353,2.503c0.212,3.535,1.929,7.364,4.428,10.221c2.969,3.426,2.905,1.531,1.421-1.204
		c-0.835-1.557-2.775-6.116-2.972-7.744c-0.324-2.957,3-6.87,1.004-6.889c-0.984-0.02-3.103,2.344-2.246-3.164
		c0.053-0.337,1.061-4.667-0.421-4.512c-1.67,0.2-2.219,5.45-2.172,6.595C62.372,82.993,62.695,84.373,62.948,85.778z
		 M51.527,108.38c-0.24,0.677-0.482,1.352-0.739,2.006c-0.703,1.778-1.549,3.473-2.828,5.047c-0.451,0.588-0.106,0.833,0.539,0.432
		c2.007-1.207-0.124,2.675-0.153,2.998c-0.067,1.012,1.149,0.856,2.058-1.1c1.244-2.657,2.993-7.395,2.502-10.438
		c-0.113-0.594-0.572-1.242-0.942-0.167C51.835,107.562,51.68,107.985,51.527,108.38z M44.786,108.544
		c0.028-0.034,0.053-0.047,0.081-0.081c0.385-0.44,0.852-0.984,1.153-1.478c0.746-1.191,0.089-1.589-1.091-0.652
		c-1.28,1.015-3.238,3.059-3.678,3.434c-2.474,2.194-2.551,1.682-4.246,2.905c-0.783,0.549-0.31,1.26,0.614,0.806
		c2.29-1.145,5.182-2.562,6.702-4.388C44.431,108.954,44.595,108.766,44.786,108.544z"/>
</g>
</svg>
