<?xml version="1.0" encoding="utf-8"?>
<!-- Generator: Adobe Illustrator 15.0.0, SVG Export Plug-In . SVG Version: 6.00 Build 0)  -->
<!DOCTYPE svg PUBLIC "-//W3C//DTD SVG 1.1//EN" "http://www.w3.org/Graphics/SVG/1.1/DTD/svg11.dtd">
<svg version="1.1" id="Layer_1" xmlns="http://www.w3.org/2000/svg" xmlns:xlink="http://www.w3.org/1999/xlink" x="0px" y="0px"
	 width="176px" height="208px" viewBox="0 0 176 208" enable-background="new 0 0 176 208" xml:space="preserve">
<rect x="3.836" y="3.288" fill="#CCCCCC" width="168.328" height="201.424"/>
<g id="SignTorch">
	<path id="signtorch-horse087_x003d_.cmx" fill="#FF3333" stroke="#999999" stroke-width="0.25" stroke-miterlimit="10" d="
		M104.438,121.006c-0.342-0.305-0.708-0.613-1.075-0.943c-0.854-0.739-2.052-2.506-2.492-1.951
		c-0.221,0.266,0.415,2.772,0.516,3.081c0.144,0.616,1.609,5.154,1.878,5.749c0.637,1.46,3.251,4.581,4.377,5.936
		c2.419,2.918,4.225,3.573,5.082,7.392c0.659,2.98,4.519,4.806,6.061,7.434c0.464,0.781,1.638,3.616,1.661,4.579
		c0.073,1.91-4.253,2.549-6.965,1.687c-2.934-0.965-2.591-2.424-3.077-4.621c-0.662-3.018-1.174-2.588-3.008-3.899
		c-1.148-0.803-1.588-2.898-2.198-4.191c-1.591-3.409-6.452-8.974-9.213-11.828c-3.472-3.575-3.57-3.984-4.327-8.071
		c-0.659-3.677-1.173-5.133-2.321-8.669c-1.123-3.427-0.855-4.926-5.474-5.708c-6.304-1.067-9.774-1.375-14.956-4.721
		c-2.786-1.788-3.079-1.027-4.959,0.801c-3.422,3.326-3.374,3.449-3.983,7.659c-0.318,2.237-0.978,4.396-1.441,6.59
		c-0.734,3.598,0.561,4.974-0.783,8.319c-0.88,2.196-0.293,4.087,0.464,6.263c0.611,1.787,1.173,4.212,2.321,5.751
		c1.247,1.685,1.662,3.614,2.468,5.422c0.563,1.273,2.396,2.834,1.98,4.312c-0.439,1.501-4.766,2.113-6.11,2.199
		c-1.855,0.121-4.13,0.184-4.398-1.83c-0.342-2.771,2.445-2.957,0.219-5.42c-2.076-2.322-1.832-3.779-1.905-6.675
		c-0.074-3.738-1.271-7.559-3.007-11.009c-0.61-1.169-1.417-2.279-1.93-3.43c-0.783-1.724-1.173,0.394-1.613,1.396
		c-1.198,2.815-2.224,6.121-4.96,8.194c-0.636,0.473-1.222,0.083-1.344-0.532c-0.073-0.412,0.708-5.729-1.075-4.254
		c-0.196,0.186-2.59,3.144-3.079,3.676c-0.855,0.926-0.954,1.09-2.2,1.458c-2.127,0.659-3.788,3.124-5.474,4.356
		c-2.908,2.156-0.806-3.061-0.635-3.534c0.538-1.312,1.173-2.605,1.783-3.901c0.171-0.328,1.931-3.632,0.562-3.243
		c-0.244,0.081-3.03,2.217-3.983,2.669c-3.836,1.829,0.415-3.492,0.832-4.002c0.391-0.516,2.37-2.754,0.146-2.342
		c-1.979,0.386-5.329-0.207-3.397-2.343c1.466-1.601,2.639-2.033,4.569-4.354c1.736-2.138,1.931-2.382,3.984-4.231
		c3.128-2.834,0.513-1.848-0.196-2.34c-0.708-0.515,0.636-1.439,1.026-1.704c4.13-2.649,4.058-3.963,6.427-7.741
		c0.637-1.008,2.005-1.582,1.736-2.875c-0.366-1.747-0.61-3.533-0.83-5.299c-0.563-4.518-0.417-15.156,2.149-19.222
		c1.613-2.588,3.324-5.114,5.475-7.393c4.521-4.848,8.188-8.029,15.958-8.419c0.806-0.041,6.843,0.184,7.747,0.225
		c3.568,0.143,7.086,1.026,10.41-0.595c1.589-0.78,2.982-2.32,3.519-3.799c0.391-1.068-0.783-0.453-1.296-0.185
		c-1.465,0.76-2.174,0.225-0.975-1.294c1.686-2.094,2.981-4.21,4.202-6.51c0.489-0.924,0.66-1.601-0.708-1.191
		c-0.562,0.164-1.175,0.37-1.541,0.267c-1.515-0.432,0.929-2.299,1.295-2.649c3.398-3.101,2.199-3.778,5.401-7.536
		c1.197-1.397-2.958-0.227,0.146-3.061c3.128-2.855,5.816-5.442,10.509-6.346c1.491-0.287,2.762,0.35,3.081-0.514
		c0.291-0.737-1.298-3.798,2.246-6.859c0.782-0.677,3.007-2.771,4.156-1.581c0.805,0.822,0.56,3.697,0.438,4.765
		c-0.219,1.91,2.395,0.616,4.521,0.328c4.204-0.553,4.007-0.04,5.425-0.04c1.809-0.021,3.642-3.369,4.544-4.396
		c0.929-1.026,1.932-0.411,2.199,0.657c0.271,1.088-0.513,4.682-0.831,5.771c-0.61,2.197-1.783,2.833-1.343,3.778
		c0.439,0.944,1.491,1.807,2.688,4.704c0.467,1.108,2.15,5.872,1.051,6.899c-0.684,0.678-1.442-0.985-2.15,0.308
		c-1.319,2.342-0.978,1.829-0.952,4.971c0.024,3.45-0.513,4.56-0.611,7.188c-0.146,3.819,2.198,3.593,2.175,7.146
		c0,1.623-0.293,2.712-1.172,4.107c-1.369,2.116-1.369,4.004-4.644,4.538c-1.957,0.33-1.248,1.726-1.248,3.06
		c0,3.06,0.392,5.196,2.371,7.825c2.298,3.06,4.497,6.181,5.475,9.734c0.83,3.121,0.709,7.29,0,10.454
		c-0.855,3.797-0.439,3.797,0.854,7.269c1.321,3.512,2.862,6.98,3.669,10.594c0.828,3.779,2.002,6.884,4.179,10.269
		c1.953,3.041,1.344,5.423,0.292,8.628c-1.32,3.964-1.075,4.087-1.809,7.741c-0.415,2.217-0.635,2.056-1.466,3.82
		c-0.808,1.705-3.397,2.239-3.471,2.997c-0.073,0.555,1.418,2.074,1.807,2.463c1.664,1.542,5.231,5.259,6.209,7.171
		c1.222,2.338-1.905,3.283-4.153,3.366c-3.153,0.143-6.624-0.021-7.454-3.141c-0.66-2.507,0.879-4.296-1.979-6.223
		c-3.104-2.077-2.346-4.52-3.298-7.396c-1.102-3.307-2.837-5.995-5.427-8.644c-2.932-3.041-2.101-4.066-5.915-7.023
		C109.131,125.154,106.93,123.164,104.438,121.006z M38.016,119.632c0.097-0.246,0.22-0.492,0.318-0.74
		c0.317-0.657,0.61-1.295,0.978-1.951c1.833-3.243,3.127-9.427,2.81-13.224c-0.074-0.863-0.342-1.52-1.051-1.294
		c-0.978,0.288-0.709,1.931-0.831,2.955c-0.27,2.406-0.122,3.143-1.344,5.506c-1.734,3.286-4.74,5.913-4.985,6.366
		c-0.513,0.861,0.783,0.841,1.368,0.368c0.831-0.678,1.71-1.233,1.613,0.329c-0.22,3.409-5.229,8.092-3.47,8.667
		c0.734,0.246,1.71-1.46,1.955-1.831C36.575,123.061,37.258,121.336,38.016,119.632z M112.919,118.563
		c-1.321-1.746-2.761-3.43-4.521-4.89c-2.249-1.825-0.953-1.908-1.49-4.024c-0.539-2.071-3.007-1.621-4.058-4.393
		c-0.269-0.759-0.733-2.628-2.15-2.444c-1.955,0.308-1.32,3.92,1.075,5.831c2.833,2.261-1.834,0.987,1.296,4.97
		c3.347,4.273,3.715,3.574,5.889,6.037c4.081,4.58,2.271,0.125,5.277,3.039c0.221,0.228,2.272,2.465,2.763,1.376
		c0.316-0.678-2.028-3.016-3.129-4.269c-0.146-0.188-0.292-0.351-0.391-0.474C113.31,119.055,113.115,118.81,112.919,118.563z
		 M119.64,113.574c-0.125-0.226-0.223-0.434-0.345-0.639c-0.194-0.349-0.363-0.676-0.562-1.007c-1.418-2.73-3.251-2.525-6.083-3.9
		c-0.931-0.45-0.758,0.555-0.538,0.986c0.78,1.684,1.588,3.429,2.514,5.028c1.712,2.918,2.787,5.629,5.525,8.053
		c4.276,3.777,4.374,4.087,5.133,9.321c0.39,2.69,1.466,5.199,2.223,7.806c0.487,1.705,1.174,0.984,2.248,0.288
		c2.1-1.397,1.199-3.388,1.441-5.525c0.1-0.903,0.245-3.163,0.197-3.924c-0.197-2.547-2.495-4.618-4.155-6.61
		c-2.982-3.532-4.62-4.743-7.014-8.831C120.029,114.272,119.833,113.92,119.64,113.574z M120.078,95.872
		c0,0.081,0,0.142,0.025,0.206c0.097,0.905,0.267,1.85,1.001,2.075c0.78,0.244,1.833-1.05,2.787-1.355
		c1.195-0.393,2.051-0.596,2.566-1.747c1.049-2.361-2.372-7.598-3.96-7.352c-1.932,0.267-3.153,4.743-2.594,6.94
		C120.003,94.947,120.029,95.4,120.078,95.872z M112.037,92.585c-0.098,0.104-0.194,0.206-0.269,0.329
		c-1.025,1.273-1.563,2.177-1.759,4.497c-0.025,0.578-0.171,2.917,1.147,2.67c1.224-0.227,1.295-2.875,3.568-3.737
		c2.493-0.943,1.002-2.567,1.271-4.867c0.026-0.389,0.661-3.389-0.734-2.998c-0.805,0.184-1.855,2.361-2.32,2.956
		C112.624,91.867,112.306,92.236,112.037,92.585z M89.358,95.728c0.049,0.411,0.099,0.82,0.174,1.212
		c0.269,1.93,0.61,3.614,0.902,4.455c0.464,1.335,3.301,7.743,5.084,7.535c1.929-0.244-0.978-3.593-0.439-5.624
		c0.658-2.568-2.274-5.136-2.004-8.276c0.341-3.676-0.61-3.902-0.734-6.675c-0.121-2.649,2.543-6.591,0.367-6.469
		c-2.273,0.062-3.74,5.298-3.861,6.653C88.725,89.772,88.968,92.832,89.358,95.728z M76.285,73.569
		c0.025-0.123,0.074-0.267,0.123-0.431c0.367-1.193,1.001-2.752,1.784-1.356c0.61,1.108,1.344,0.74,1.368-0.288
		c0.025-2.607,1.002-5.503,2.958-7.515c0.487-0.533,3.396-4.89,1.368-4.766c-1.246,0.124-6.305,6.223-6.573,6.593
		c-1.663,2.197-3.618,5.75-2.835,8.502c0.318,1.109,1.222,1.026,1.637-0.206C76.163,73.979,76.211,73.794,76.285,73.569z
		 M85.499,68.354c0.073-0.083,0.147-0.165,0.22-0.248c0.563-0.635,1.099-1.417,1.711-3.142c0.195-0.513,1.271-3.593-0.783-1.951
		c-1.687,1.396-4.521,5.998-4.691,7.537c-0.147,1.396,0.879,1.458,1.856-0.123C84.449,69.4,84.985,68.887,85.499,68.354z
		 M92.929,63.157c0.023-0.761,0.047-1.519,0.072-2.28c0.049-2.012,0.171-4.046,0.342-6.037c0.416-4.437-0.121-4.128,0.93-8.914
		c0.048-0.164,0.293-1.088,0.341-1.787c0.026-1.027-0.806-0.904-1.343,0.021c-0.611,1.006-1.124,2.628-1.37,3.101
		c-2.148,4.518-4.936,8.439-6.084,13.267c-0.268,1.15,0.465,1.171,1.271-0.02c0.928-1.398,1.709-2.813,2.444-4.292
		c0.634-1.273,1.123-0.739,1.099,0.349c-0.121,3.203-1.003,6.49-1.931,9.589c-0.417,1.356,0.978,0.638,1.393,0.74
		c1.148,0.247-2.198,6.611-2.395,6.941c-0.585,1.026-4.131,5.32-3.25,6.387c0.807,1.006,3.102-3.04,3.664-3.716
		c2.273-2.752,4.767-9.057,4.816-12.015C92.929,64.04,92.929,63.609,92.929,63.157z M95.665,58.866c0,0.513,0,1.026-0.025,1.54
		c0,2.28-0.048,4.559-0.22,6.9c-0.243,3.553-2.884,6.962-4.96,9.959c-0.074,0.083-2.248,3.06-1.102,2.876
		c1.344-0.205,3.643-5.586,4.032-4.128c0.075,0.246-0.561,1.868,0.221,1.705c0.488-0.103,1.221-1.643,1.93-3.389
		c2.884-7.312,2.786-14.068,1.639-21.727c-0.243-1.581-0.49-2.095-0.49-3.656c-0.022-0.576-0.389-1.971-0.78,0.02
		c-0.489,2.486-0.221,4.785-0.244,7.292C95.665,57.14,95.665,58.001,95.665,58.866z M112.843,56.174
		c0.171,0.227,0.367,0.473,0.588,0.761c1.32,1.703,3.373,4.313,4.131,4.579c0.683,0.247,1.074-0.328,0.072-1.56
		c-1.611-1.992-0.563-2.3-2.98-4.826c-1.785-1.829-2.103-3.882-3.397-4.499c-1.613-0.78-1.489,2.547-4.911-3.881
		c-0.734-1.396-0.782-2.013-1.148-2.752c-0.589-1.273-0.978,0.227-0.93,0.821c0.171,2.548,2.248,6.592,4.814,7.988
		c2.298,1.274,1.93,1.007,3.371,2.855C112.551,55.785,112.697,55.97,112.843,56.174z M119.712,40.999
		c0.049,0.144,0.098,0.288,0.146,0.432c0.367,1.088,0.709,2.155,0.855,2.854c0.882,4.189-1.807,2.259-1.052,6.51
		c0.123,0.678,0.635,2.526,0.563,3.122c-0.073,0.802-1.662,0.513-0.585,1.746c1.465,1.684-0.345,3.06,0.656,3.942
		c0.785,0.679,1.419-0.677,1.614-1.108c0.269-0.616,0.659-2.69,1.882-1.91c0.879,0.555,1.467,0.965,2.273-0.78
		c0.685-1.459-1.319-1.416-1.516-4.025c-0.439-5.36-0.342-7.517-1.784-12.712c-0.757-2.731,0.612-4.743-0.075-6.304
		c-0.657-1.438-1.269-3.82-3.126-4.416c-0.561-0.184-0.979-0.411-1.295-0.616c-1.075-0.718-1.712-0.739-1.784,0.494
		c-0.023,0.493-0.123,0.924-0.903,0.862c-1.834-0.144-0.659,1.355-1.541,2.135c-0.44,0.37-1.467,0.925-0.659,1.458
		c1.075,0.74,3.788-0.452,4.569,2.238c0.318,1.11,0.537,2.26,0.854,3.389C119.052,39.047,119.37,40.033,119.712,40.999z
		 M124.525,34.837c-0.025,0.493,0.074,0.924,0.244,1.089c0.659,0.637,2.884-1.294,1.271-2.71c-0.197-0.186-0.465-0.349-0.757-0.287
		C124.77,33.052,124.525,34.016,124.525,34.837z M110.01,35.167c0.122,0,0.243,0,0.393,0c0.635,0.02,1.245,0.143,1.782,0.657
		c1.613,1.478,2.1-2.218-1.074-3.081c-1.175-0.308-4.986,0.595-3.593,1.931C108.179,35.31,109.081,35.187,110.01,35.167z
		 M110.693,37.445c-0.023,0-0.073,0-0.097-0.02c-0.221-0.041-0.438-0.083-0.684-0.062c-1.246,0.124-0.44,1.458,1.466,1.231
		c1.148-0.123,1.417-0.821-0.099-1.027C111.085,37.549,110.889,37.507,110.693,37.445z M98.842,36.44
		c0-0.266,0.023-0.514,0.049-0.76c0.049-0.842,0.098-1.643,0.244-2.565c0.171-1.089-0.685-0.35-0.977,0.347
		c-0.612,1.458-1.004,4.128-1.027,4.642c-0.294,3.573-0.242,7.598,2.442,10.597c0.734,0.821,1.468,0.348,1.076-0.555
		c-1.368-3.183-2.052-7.558-1.857-10.905C98.816,36.953,98.816,36.686,98.842,36.44z M95.909,34.98
		c0.392-0.922,0.806-1.827,1.319-2.71c0.122-0.185,0.732-1.088,1.075-1.766c0.416-0.801,0.171-1.006-0.708-0.575
		c-0.831,0.411-1.931,1.273-2.32,1.643c-2.251,2.176-2.494,3.717-3.252,5.585c-0.245,0.637-0.537,1.293-1.002,2.013
		c-0.684,1.13,0.488,1.252,0.17,2.033c-0.584,1.479-3.322,4.681-1.905,4.662c0.734,0,2.541-2.238,2.884-2.731
		C93.979,40.609,94.76,37.733,95.909,34.98z M101.065,26.809c0.172-0.083,0.343-0.165,0.538-0.226
		c1.368-0.637,2.638-1.232,2.933-1.664c0.439-0.678-0.734-0.802-1.272-0.781c-2.663,0.226-4.789,1.891-6.622,3.41
		c-1.54,1.293-0.636,1.868,1.271,0.738C98.598,27.876,99.843,27.342,101.065,26.809z M111.865,26.706
		c-0.022,0.082-0.022,0.185-0.022,0.287c-0.074,0.802-0.049,1.52,0.609,1.479c1.321-0.062,1.296-3.656,1.712-4.436
		c0.342-0.719,1.393-1.069,0.637-2.034c-0.538-0.657-1.787-0.842-2.665-0.759c-2.711,0.204-5.033,3.695-6.159,5.421
		c-0.268,0.389-1.881,1.949-1.173,2.341c0.465,0.226,1.541-0.884,1.834-1.13c0.685-0.595,1.809-2.32,2.199-1.664
		c0.221,0.329-0.637,1.438,0.195,1.5c0.757,0.062,2.273-3.265,2.86-2.608C112.062,25.31,111.939,26.008,111.865,26.706z
		 M116.145,21.777c0.095,0.123,0.193,0.226,0.243,0.349c0.294,0.699,0.344,1.089,0.465,1.396c0.171,0.515,0.463,0.781,2.224,1.808
		c3.397,1.951,2.736,4.066,3.689,4.518c0.88,0.39,0.952-1.129,0.855-1.643c-0.025-0.185-0.513-1.725,0.293-1.417
		c1.051,0.392,2.395,2.917,2.737,3.799c0.464,1.212,1.466,1.13,1.223-0.102c-0.88-4.169-4.057-6.202-4.619-7.312
		c-0.341-0.658,2.371-0.512-0.22-2.218c-1.394-0.904-3.544-1.15-5.255-0.985C114.188,20.277,115.482,20.955,116.145,21.777z
		 M52.189,84.021c0.318,0.863,0.587,1.726,0.808,2.609c0.831,3.736,3.347,7.536,6.549,10.166c3.813,3.162,3.422,1.149,1.344-1.52
		c-1.173-1.521-4.056-6.059-4.546-7.764c-0.854-3.101,2.103-7.823-0.073-7.515c-1.075,0.144-2.98,3.018-2.98-3
		c0-0.369,0.366-5.154-1.222-4.743c-1.784,0.493-1.491,6.182-1.247,7.393C51.089,81.147,51.677,82.563,52.189,84.021z
		 M43.587,110.021c-0.146,0.759-0.292,1.521-0.464,2.26c-0.464,2.011-1.099,3.961-2.224,5.852c-0.391,0.697,0.025,0.905,0.66,0.368
		c1.979-1.621,0.317,2.877,0.342,3.226c0.097,1.089,1.393,0.718,2.053-1.518c0.904-3.041,2.003-8.38,0.953-11.543
		c-0.221-0.617-0.831-1.231-1.051-0.021C43.784,109.095,43.687,109.569,43.587,110.021z M36.281,111.313
		c0.025-0.04,0.049-0.061,0.073-0.103c0.343-0.534,0.759-1.19,1.003-1.767c0.61-1.396-0.171-1.705-1.296-0.515
		c-1.222,1.295-3.006,3.802-3.421,4.274c-2.321,2.749-2.492,2.217-4.13,3.798c-0.758,0.718-0.122,1.397,0.806,0.762
		c2.297-1.602,5.205-3.594,6.549-5.793C35.963,111.808,36.11,111.58,36.281,111.313z"/>
</g>
<g>
	<g>
		<path fill="#CCCCCC" d="M150.996,37.427c0.371,0,2.188-0.732,1.268-0.732C151.893,36.694,150.075,37.427,150.996,37.427
			L150.996,37.427z"/>
	</g>
</g>
<g>
	<g>
		<path fill="#CCCCCC" d="M16.046,94.278c0.835,0,2.012-1.268,0.705-1.268C15.916,93.01,14.739,94.278,16.046,94.278L16.046,94.278z
			"/>
	</g>
</g>
<g>
	<g>
		<path fill="#CCCCCC" d="M13.628,106.815c0.364,0,2.186-0.721,1.271-0.721C14.534,106.095,12.713,106.815,13.628,106.815
			L13.628,106.815z"/>
	</g>
</g>
<g>
	<g>
		<path fill="#CCCCCC" d="M106.707,39.911c1.109,0,1.477-1.431,0.166-1.431C105.764,38.48,105.396,39.911,106.707,39.911
			L106.707,39.911z"/>
	</g>
</g>
<g>
	<g>
		<path fill="#CCCCCC" d="M110.438,39.607c0.426,0,2.209-0.822,1.244-0.822C111.257,38.785,109.474,39.607,110.438,39.607
			L110.438,39.607z"/>
	</g>
</g>
<g>
	<g>
		<path fill="#CCCCCC" d="M110.664,39.666c0.619,0,2.091-0.939,0.793-0.939C110.838,38.726,109.366,39.666,110.664,39.666
			L110.664,39.666z"/>
	</g>
</g>
<g>
	<g>
		<path fill="#CCCCCC" d="M110.699,39.798c0.795,0,2.03-1.205,0.723-1.205C110.627,38.593,109.392,39.798,110.699,39.798
			L110.699,39.798z"/>
	</g>
</g>
</svg>
