<?xml version="1.0" encoding="utf-8"?>
<!-- Generator: Adobe Illustrator 15.0.0, SVG Export Plug-In . SVG Version: 6.00 Build 0)  -->
<!DOCTYPE svg PUBLIC "-//W3C//DTD SVG 1.1//EN" "http://www.w3.org/Graphics/SVG/1.1/DTD/svg11.dtd">
<svg version="1.1" id="Layer_1" xmlns="http://www.w3.org/2000/svg" xmlns:xlink="http://www.w3.org/1999/xlink" x="0px" y="0px"
	 width="400px" height="400px" viewBox="0 0 400 400" enable-background="new 0 0 400 400" xml:space="preserve">
<g id="Layer_1_1_">
	
		<rect x="22.499" y="12.5" fill="#FFFFFF" stroke="#C8C8C8" stroke-width="0.4739" stroke-linecap="round" stroke-linejoin="round" width="353.334" height="370"/>
	<g id="SignTorch">
		<path id="signtorch-horse087_x003d_.cmx" fill="#FFFFFF" stroke="#C8C8C8" stroke-width="0.8231" stroke-miterlimit="10" d="
			M220.433,214.511c-0.352-0.313-0.74-0.638-1.126-0.979c-0.898-0.773-2.017-2.501-2.669-2.068c-0.32,0.207-0.03,2.518,0.035,2.801
			c0.053,0.565,0.968,4.791,1.179,5.351c0.492,1.382,3.085,4.501,4.2,5.854c2.388,2.918,4.473,3.743,4.774,7.243
			c0.228,2.728,4.595,4.873,5.965,7.408c0.414,0.755,1.302,3.433,1.143,4.285c-0.28,1.707-5.691,1.689-8.837,0.558
			c-3.401-1.253-2.701-2.501-2.872-4.512c-0.22-2.771-0.928-2.459-2.918-3.867c-1.245-0.874-1.379-2.785-1.871-4.015
			c-1.284-3.24-6.146-8.827-8.971-11.729c-3.547-3.645-3.587-4.021-3.719-7.744c-0.093-3.353-0.439-4.712-1.155-8.003
			c-0.707-3.191-0.091-4.482-5.585-5.804c-7.5-1.794-11.68-2.539-17.365-6.204c-3.059-1.967-3.567-1.33-6.219,0.038
			c-4.829,2.487-4.793,2.603-6.355,6.25c-0.823,1.942-2.047,3.766-3.042,5.654c-1.595,3.09-0.279,4.485-2.569,7.267
			c-1.504,1.834-1.156,3.586-0.65,5.621c0.403,1.665,0.617,3.891,1.722,5.412c1.197,1.658,1.328,3.428,1.964,5.14
			c0.438,1.206,2.375,2.838,1.581,4.092c-0.827,1.271-6.234,1.23-7.895,1.127c-2.291-0.146-5.085-0.4-5.022-2.219
			c0.121-2.504,3.563-2.289,1.32-4.777c-2.089-2.341-1.505-3.597-1.031-6.178c0.633-3.324-0.089-6.873-1.541-10.166
			c-0.52-1.123-1.289-2.211-1.692-3.301c-0.623-1.636-1.51,0.19-2.243,1.017c-2.011,2.337-3.907,5.129-7.652,6.598
			c-0.87,0.331-1.511-0.092-1.541-0.656c-0.008-0.371,1.978-4.984-0.488-3.918c-0.272,0.139-3.776,2.438-4.48,2.847
			c-1.226,0.705-1.377,0.836-2.973,0.994c-2.726,0.297-5.235,2.255-7.532,3.123c-3.977,1.518-0.392-2.825-0.093-3.219
			c0.911-1.093,1.941-2.151,2.938-3.217c0.273-0.271,3.065-2.964,1.316-2.804c-0.314,0.043-4.134,1.559-5.384,1.83
			c-5.045,1.104,1.183-3.045,1.791-3.437c0.579-0.404,3.429-2.121,0.632-2.057c-2.495,0.075-6.472-0.904-3.699-2.532
			c2.103-1.224,3.622-1.45,6.43-3.245c2.535-1.661,2.824-1.85,5.691-3.21c4.375-2.095,0.986-1.574,0.216-2.108
			c-0.766-0.55,1.055-1.191,1.585-1.37c5.563-1.788,5.728-2.966,9.357-5.995c0.976-0.808,2.759-1.132,2.682-2.317
			c-0.109-1.597-0.06-3.213,0.015-4.81c0.188-4.082,2.432-13.495,6.359-16.754c2.473-2.076,19.692-11.829,29.264-11.123
			c0.995,0.071,8.331,1.089,9.427,1.247c4.335,0.608,8.462,1.869,12.841,0.878c2.093-0.475,4.097-1.652,5.039-2.891
			c0.686-0.894-0.869-0.508-1.548-0.34c-1.942,0.476-2.701-0.093-0.939-1.279c2.472-1.631,4.462-3.329,6.401-5.203
			c0.778-0.753,1.116-1.332-0.636-1.152c-0.716,0.071-1.509,0.169-1.939,0.028c-1.766-0.587,1.589-1.911,2.102-2.173
			c4.756-2.293,3.417-3.054,8.068-5.953c1.734-1.078-3.575-0.6,0.768-2.694c4.381-2.107,8.171-4.04,14.082-4.208
			c1.877-0.051,3.307,0.684,3.865-0.038c0.499-0.615-0.852-3.545,4.074-5.779c1.089-0.494,4.215-2.052,5.39-0.842
			c0.827,0.84-0.035,3.357-0.386,4.285c-0.636,1.665,2.807,0.871,5.462,0.903c5.244,0.076,4.903,0.506,6.644,0.697
			c2.209,0.226,5.097-2.494,6.401-3.283c1.334-0.785,2.439-0.104,2.56,0.879c0.123,1.001-1.534,4.084-2.132,5.006
			c-1.177,1.866-2.732,2.27-2.376,3.167c0.354,0.896,1.472,1.804,2.372,4.535c0.36,1.046,1.492,5.495-0.051,6.257
			c-0.966,0.51-1.573-1.069-2.689-0.019c-2.067,1.901-1.55,1.491-2.126,4.281c-0.644,3.063-1.513,3.975-2.146,6.291
			c-0.924,3.368,1.989,3.482,1.273,6.631c-0.318,1.438-0.885,2.363-2.225,3.484c-2.093,1.69-2.457,3.365-6.568,3.393
			c-2.449,0.027-1.858,1.362-2.114,2.547c-0.59,2.712-0.53,4.659,1.381,7.258c2.213,3.023,4.296,6.087,4.8,9.368
			c0.411,2.883-0.542,6.563-2.028,9.276c-1.779,3.25-1.271,3.308-0.367,6.562c0.933,3.289,2.144,6.572,2.429,9.888
			c0.28,3.461,1.112,6.371,3.117,9.673c1.8,2.956,0.592,4.985-1.316,7.684c-2.384,3.339-2.109,3.48-3.707,6.621
			c-0.94,1.912-1.179,1.74-2.54,3.188c-1.321,1.409-4.584,1.53-4.825,2.19c-0.197,0.48,1.333,2.027,1.732,2.431
			c1.733,1.59,5.375,5.37,6.199,7.199c1.04,2.235-2.968,2.654-5.734,2.42c-3.88-0.297-8.093-0.911-8.503-3.794
			c-0.319-2.31,1.905-3.688-1.21-5.782c-3.391-2.26-1.989-4.327-2.597-7.004c-0.705-3.081-2.303-5.701-4.955-8.401
			c-2.993-3.088-1.778-3.889-5.87-7.025C225.372,218.824,223.068,216.765,220.433,214.511z M139.509,204.313
			c0.165-0.206,0.365-0.405,0.533-0.613c0.517-0.54,0.997-1.061,1.574-1.6c2.867-2.624,5.652-7.935,5.999-11.343
			c0.08-0.776-0.125-1.393-1.033-1.289c-1.25,0.12-1.242,1.614-1.589,2.506c-0.796,2.098-0.758,2.771-2.712,4.701
			c-2.757,2.681-6.94,4.602-7.329,4.971c-0.794,0.695,0.791,0.854,1.6,0.513c1.149-0.49,2.33-0.863,1.91,0.509
			c-0.93,2.992-7.962,6.469-5.924,7.215c0.849,0.319,2.375-1.061,2.744-1.359C137.083,207.16,138.253,205.724,139.509,204.313z
			 M231.281,213.493c-1.278-1.729-2.709-3.416-4.578-4.948c-2.392-1.92-0.795-1.819-1.04-3.77c-0.257-1.908-3.361-1.844-4.106-4.444
			c-0.179-0.708-0.389-2.427-2.156-2.454c-2.449,0.007-2.377,3.295,0.185,5.313c3.024,2.388-2.431,0.625,0.618,4.583
			c3.263,4.239,3.848,3.67,6.025,6.146c4.103,4.616,2.751,0.418,5.86,3.408c0.228,0.231,2.297,2.495,3.112,1.598
			c0.521-0.56-1.896-2.952-2.998-4.209c-0.138-0.185-0.289-0.353-0.385-0.471C231.661,213.982,231.472,213.737,231.281,213.493z
			 M240.467,209.979c-0.114-0.217-0.19-0.414-0.3-0.613c-0.176-0.336-0.31-0.647-0.492-0.968c-1.204-2.615-3.485-2.678-6.68-4.282
			c-1.052-0.526-1.035,0.391-0.846,0.804c0.626,1.595,1.272,3.254,2.095,4.796c1.524,2.819,2.311,5.367,5.189,7.889
			c4.495,3.93,4.553,4.213,4.468,8.957c-0.049,2.439,0.781,4.809,1.198,7.226c0.269,1.576,1.246,1.03,2.695,0.56
			c2.836-0.955,2.122-2.844,2.832-4.708c0.298-0.784,0.91-2.771,1.003-3.454c0.254-2.282-2.158-4.431-3.798-6.421
			c-2.956-3.535-4.723-4.831-6.858-8.777C240.807,210.647,240.632,210.31,240.467,209.979z M244.438,194.341
			c-0.014,0.07-0.029,0.125-0.012,0.183c-0.056,0.818-0.032,1.677,0.823,1.976c0.902,0.324,2.443-0.68,3.67-0.827
			c1.538-0.187,2.618-0.248,3.477-1.198c1.737-1.957-1.427-7.057-3.414-7.057c-2.411-0.026-4.777,3.78-4.519,5.801
			C244.522,193.507,244.468,193.914,244.438,194.341z M235.242,190.336c-0.138,0.08-0.278,0.155-0.385,0.256
			c-1.504,0.99-2.34,1.719-3.028,3.754c-0.138,0.505-0.772,2.559,0.887,2.52c1.538-0.037,2.138-2.372,5.088-2.828
			c3.229-0.501,1.719-2.143,2.496-4.147c0.105-0.342,1.467-2.915-0.315-2.757c-1.018,0.054-2.722,1.843-3.41,2.308
			C236.102,189.779,235.639,190.062,235.242,190.336z M206.909,190.059c-0.017,0.37-0.038,0.74-0.022,1.095
			c-0.048,1.751,0.044,3.29,0.238,4.077c0.308,1.246,2.53,7.312,4.754,7.37c2.408,0.042-0.498-3.32,0.55-5.047
			c1.31-2.188-1.777-4.865-0.84-7.611c1.131-3.216,0.013-3.545,0.396-6.019c0.367-2.364,4.393-5.502,1.709-5.688
			c-2.796-0.251-5.602,4.193-6.013,5.378C207.294,184.69,206.995,187.438,206.909,190.059z M195.231,168.643
			c0.053-0.104,0.142-0.227,0.233-0.365c0.68-1.007,1.756-2.305,2.442-0.962c0.535,1.067,1.5,0.838,1.73-0.072
			c0.535-2.304,2.292-4.742,5.074-6.262c0.699-0.406,5.098-3.873,2.594-4.04c-1.543-0.06-8.913,4.665-9.309,4.956
			c-2.462,1.723-5.542,4.608-5.119,7.155c0.175,1.027,1.296,1.075,2.043,0.04C195.001,168.989,195.094,168.833,195.231,168.643z
			 M207.506,165.265c0.105-0.065,0.21-0.127,0.317-0.194c0.811-0.483,1.617-1.104,2.7-2.553c0.338-0.427,2.25-3.013-0.577-1.835
			c-2.33,1.013-6.689,4.709-7.2,6.05c-0.444,1.218,0.795,1.411,2.297,0.143C206.021,166.05,206.771,165.667,207.506,165.265z
			 M217.596,161.66c0.179-0.672,0.358-1.34,0.535-2.011c0.448-1.778,0.989-3.565,1.588-5.309c1.367-3.875,0.659-3.674,2.865-7.776
			c0.092-0.139,0.573-0.923,0.765-1.537c0.233-0.906-0.809-0.911-1.646-0.163c-0.943,0.809-1.883,2.177-2.276,2.564
			c-3.502,3.715-7.669,6.816-10.013,10.938c-0.549,0.989,0.34,1.105,1.554,0.157c1.409-1.115,2.643-2.264,3.824-3.478
			c1.025-1.042,1.521-0.502,1.28,0.458c-0.771,2.823-2.489,5.619-4.228,8.239c-0.77,1.148,1.071,0.7,1.56,0.846
			c1.359,0.377-3.968,5.566-4.276,5.833c-0.913,0.832-6.079,4.157-5.208,5.224c0.789,0.999,4.387-2.276,5.2-2.8
			c3.311-2.132,7.591-7.387,8.217-10.002C217.424,162.443,217.51,162.062,217.596,161.66z M221.774,158.224
			c-0.101,0.457-0.2,0.913-0.328,1.364c-0.441,2.023-0.943,4.035-1.61,6.087c-0.986,3.122-4.872,5.784-7.994,8.163
			c-0.105,0.064-3.34,2.408-1.908,2.401c1.688,0,5.541-4.461,5.735-3.118c0.047,0.228-1.051,1.582-0.063,1.542
			c0.623-0.024,1.816-1.293,3.019-2.745c4.945-6.092,6.139-12.096,6.222-19.044c0.009-1.433-0.196-1.921,0.109-3.307
			c0.083-0.514-0.095-1.801-0.959-0.087c-1.08,2.137-1.194,4.214-1.712,6.432C222.107,156.694,221.946,157.458,221.774,158.224z
			 M243.292,158.162c0.168,0.224,0.36,0.467,0.576,0.753c1.284,1.688,3.285,4.282,4.16,4.62c0.786,0.309,1.375-0.146,0.392-1.375
			c-1.584-1.985-0.241-2.116-2.708-4.683c-1.826-1.861-1.816-3.728-3.277-4.448c-1.824-0.909-2.318,2.058-5.254-4.104
			c-0.626-1.339-0.565-1.89-0.871-2.594c-0.469-1.208-1.234,0.066-1.291,0.601c-0.288,2.283,1.469,6.151,4.335,7.732
			c2.562,1.442,2.163,1.155,3.563,2.988C243.014,157.774,243.155,157.96,243.292,158.162z M254.64,145.633
			c0.032,0.133,0.063,0.27,0.093,0.4c0.237,1.016,0.446,2.01,0.497,2.647c0.26,3.837-2.648,1.759-2.553,5.63
			c0.018,0.62,0.28,2.326,0.08,2.845c-0.239,0.701-2.128,0.228-1.051,1.469c1.463,1.69-1.015,2.666,0.037,3.583
			c0.825,0.709,1.863-0.408,2.19-0.765c0.444-0.51,1.322-2.297,2.67-1.44c0.969,0.612,1.606,1.056,2.93-0.385
			c1.118-1.202-1.339-1.433-1.072-3.77c0.504-4.813,1.038-6.712,0.282-11.514c-0.393-2.524,1.673-4.124,1.138-5.599
			c-0.525-1.363-0.811-3.559-2.967-4.338c-0.646-0.239-1.118-0.497-1.465-0.72c-1.173-0.785-1.948-0.888-2.276,0.196
			c-0.124,0.431-0.327,0.801-1.274,0.642c-2.211-0.373-1.065,1.114-2.291,1.687c-0.612,0.269-1.976,0.622-1.093,1.206
			c1.173,0.8,4.718,0.109,5.152,2.6c0.173,1.028,0.22,2.078,0.381,3.12C254.211,143.813,254.405,144.729,254.64,145.633z
			 M261.719,140.82c-0.124,0.434-0.092,0.831,0.092,0.997c0.677,0.655,3.771-0.757,2.073-2.229
			c-0.202-0.189-0.496-0.373-0.865-0.357C262.365,139.27,261.881,140.093,261.719,140.82z M243.911,139.148
			c0.147,0.017,0.297,0.036,0.479,0.056c0.77,0.102,1.498,0.292,2.054,0.82c1.683,1.53,2.997-1.683-0.72-2.875
			c-1.375-0.435-6.206-0.148-4.765,1.225C241.646,139.029,242.772,139.041,243.911,139.148z M244.306,141.265
			c-0.028-0.005-0.094-0.012-0.115-0.035c-0.26-0.064-0.521-0.13-0.824-0.146c-1.545-0.057-0.822,1.234,1.554,1.293
			c1.426,0.045,1.892-0.537,0.08-0.926C244.763,141.41,244.527,141.344,244.306,141.265z M230.012,138.771
			c0.051-0.236,0.131-0.454,0.204-0.667c0.229-0.742,0.442-1.444,0.8-2.245c0.42-0.941-0.764-0.398-1.261,0.179
			c-1.028,1.212-2.026,3.523-2.159,3.979c-1.048,3.125-1.77,6.702,0.926,9.723c0.741,0.828,1.731,0.507,1.427-0.345
			c-1.053-3.008-1.043-6.978-0.152-9.921C229.882,139.222,229.933,138.983,230.012,138.771z M226.712,137.08
			c0.655-0.766,1.338-1.511,2.135-2.225c0.184-0.146,1.109-0.867,1.655-1.42c0.669-0.654,0.405-0.87-0.747-0.604
			c-1.099,0.251-2.609,0.869-3.161,1.142c-3.171,1.625-3.767,2.959-5.056,4.516c-0.427,0.528-0.907,1.073-1.619,1.647
			c-1.051,0.91,0.357,1.179-0.184,1.825c-1.002,1.233-4.968,3.703-3.237,3.877c0.901,0.101,3.544-1.64,4.06-2.032
			C223.259,141.81,224.77,139.363,226.712,137.08z M234.6,130.53c0.227-0.051,0.452-0.102,0.702-0.127
			c1.79-0.381,3.461-0.736,3.908-1.081c0.665-0.54-0.743-0.809-1.408-0.864c-3.297-0.161-6.221,1.028-8.755,2.129
			c-2.136,0.938-1.137,1.57,1.41,0.825C231.375,131.143,233.004,130.838,234.6,130.53z M247.822,131.899
			c-0.045,0.07-0.064,0.161-0.083,0.252c-0.243,0.7-0.354,1.342,0.456,1.395c1.626,0.122,2.294-3.066,2.955-3.703
			c0.554-0.589,1.911-0.759,1.173-1.715c-0.53-0.658-2.021-0.99-3.108-1.038c-3.359-0.184-6.871,2.598-8.585,3.98
			c-0.401,0.307-2.679,1.473-1.888,1.916c0.524,0.262,2.055-0.576,2.463-0.755c0.95-0.435,2.66-1.812,3.009-1.178
			c0.209,0.323-1.054,1.19-0.051,1.357c0.915,0.156,3.412-2.588,4.003-1.925C248.333,130.685,248.05,131.289,247.822,131.899z
			 M254.01,128.108c0.091,0.121,0.192,0.226,0.229,0.341c0.227,0.658,0.212,1.012,0.296,1.3c0.105,0.48,0.416,0.757,2.369,1.904
			c3.771,2.189,2.558,3.975,3.633,4.505c0.996,0.463,1.387-0.873,1.366-1.34c0.006-0.167-0.296-1.598,0.632-1.217
			c1.215,0.49,2.358,2.908,2.608,3.739c0.331,1.135,1.573,1.201,1.513,0.072c-0.269-3.814-3.752-6.045-4.227-7.106
			c-0.29-0.629,2.997-0.133,0.164-1.997c-1.527-0.989-4.11-1.499-6.234-1.583C251.909,126.515,253.357,127.289,254.01,128.108z
			 M161.303,176.69c0.338,0.675,0.595,1.341,0.772,2.012c0.595,2.813,3.816,6.022,8.334,8.552c5.371,3.034,5.139,1.533,2.39-0.791
			c-1.549-1.319-5.205-5.129-5.649-6.437c-0.75-2.368,4.771-5.08,1.305-5.317c-1.71-0.127-5.236,1.501-4.098-2.747
			c0.069-0.257,1.545-3.56-1.018-3.603c-2.886-0.028-3.505,4.047-3.352,4.957C160.125,174.43,160.773,175.555,161.303,176.69z
			 M148.186,196.543c-0.329,0.655-0.658,1.31-1.008,1.941c-0.957,1.724-2.109,3.366-3.852,4.886
			c-0.614,0.571-0.145,0.81,0.735,0.419c2.734-1.168-0.168,2.593-0.209,2.905c-0.09,0.979,1.565,0.829,2.804-1.067
			c1.694-2.573,4.078-7.161,3.409-10.108c-0.152-0.574-0.778-1.204-1.284-0.161C148.605,195.751,148.393,196.161,148.186,196.543z
			 M139,196.703c0.038-0.034,0.072-0.044,0.108-0.079c0.524-0.426,1.161-0.953,1.572-1.43c1.016-1.154,0.122-1.539-1.486-0.632
			c-1.745,0.986-4.411,2.961-5.011,3.324c-3.372,2.125-3.477,1.63-5.786,2.815c-1.066,0.532-0.422,1.219,0.837,0.781
			c3.119-1.11,7.06-2.484,9.129-4.25C138.517,197.101,138.741,196.916,139,196.703z"/>
	</g>
	<path fill="#FFFFFF" stroke="#C8C8C8" stroke-width="0.4739" stroke-linecap="round" stroke-linejoin="round" d="M253.447,161.469
		c16.552-15.426,29.637,56.625,16.552-15.426"/>
</g>
<g id="Layer_2" display="none">
</g>
</svg>
